<mxfile host="app.diagrams.net" modified="2023-05-20T12:25:39.690Z" agent="Mozilla/5.0 (Windows NT 10.0; Win64; x64) AppleWebKit/537.36 (KHTML, like Gecko) Chrome/113.0.0.0 Safari/537.36" etag="94NJTMquvy7tXWUd2lQ0" version="21.2.2" type="device">
  <diagram name="Page-1" id="OIf2geOBGmAo-CLMgIvK">
    <mxGraphModel dx="683" dy="304" grid="1" gridSize="10" guides="1" tooltips="1" connect="1" arrows="1" fold="1" page="1" pageScale="1" pageWidth="827" pageHeight="1169" math="0" shadow="0">
      <root>
        <mxCell id="0" />
        <mxCell id="1" parent="0" />
        <mxCell id="souYRbx_8M2rUFFMSmSW-3" value="" style="rounded=0;whiteSpace=wrap;html=1;fillColor=#D4E1F5;movable=1;resizable=1;rotatable=1;deletable=1;editable=1;locked=0;connectable=1;" vertex="1" parent="1">
          <mxGeometry x="40" y="280" width="290" height="80" as="geometry" />
        </mxCell>
        <mxCell id="souYRbx_8M2rUFFMSmSW-9" value="" style="rounded=0;whiteSpace=wrap;html=1;fillColor=#D4E1F5;movable=1;resizable=1;rotatable=1;deletable=1;editable=1;locked=0;connectable=1;" vertex="1" parent="1">
          <mxGeometry x="40" y="280" width="10" height="80" as="geometry" />
        </mxCell>
        <mxCell id="souYRbx_8M2rUFFMSmSW-10" value="" style="rounded=0;whiteSpace=wrap;html=1;fillColor=#D4E1F5;movable=1;resizable=1;rotatable=1;deletable=1;editable=1;locked=0;connectable=1;" vertex="1" parent="1">
          <mxGeometry x="50" y="280" width="10" height="80" as="geometry" />
        </mxCell>
        <mxCell id="souYRbx_8M2rUFFMSmSW-11" value="" style="rounded=0;whiteSpace=wrap;html=1;fillColor=#D4E1F5;movable=1;resizable=1;rotatable=1;deletable=1;editable=1;locked=0;connectable=1;" vertex="1" parent="1">
          <mxGeometry x="60" y="280" width="10" height="80" as="geometry" />
        </mxCell>
        <mxCell id="souYRbx_8M2rUFFMSmSW-12" value="" style="rounded=0;whiteSpace=wrap;html=1;fillColor=#D4E1F5;movable=1;resizable=1;rotatable=1;deletable=1;editable=1;locked=0;connectable=1;" vertex="1" parent="1">
          <mxGeometry x="70" y="280" width="10" height="80" as="geometry" />
        </mxCell>
        <mxCell id="souYRbx_8M2rUFFMSmSW-13" value="" style="rounded=0;whiteSpace=wrap;html=1;fillColor=#D4E1F5;movable=1;resizable=1;rotatable=1;deletable=1;editable=1;locked=0;connectable=1;" vertex="1" parent="1">
          <mxGeometry x="80" y="280" width="10" height="80" as="geometry" />
        </mxCell>
        <mxCell id="souYRbx_8M2rUFFMSmSW-14" value="" style="rounded=0;whiteSpace=wrap;html=1;fillColor=#D4E1F5;movable=1;resizable=1;rotatable=1;deletable=1;editable=1;locked=0;connectable=1;" vertex="1" parent="1">
          <mxGeometry x="90" y="280" width="10" height="80" as="geometry" />
        </mxCell>
        <mxCell id="souYRbx_8M2rUFFMSmSW-15" value="" style="rounded=0;whiteSpace=wrap;html=1;fillColor=#D4E1F5;movable=1;resizable=1;rotatable=1;deletable=1;editable=1;locked=0;connectable=1;" vertex="1" parent="1">
          <mxGeometry x="100" y="280" width="10" height="80" as="geometry" />
        </mxCell>
        <mxCell id="souYRbx_8M2rUFFMSmSW-16" value="" style="rounded=0;whiteSpace=wrap;html=1;fillColor=#D4E1F5;movable=1;resizable=1;rotatable=1;deletable=1;editable=1;locked=0;connectable=1;" vertex="1" parent="1">
          <mxGeometry x="110" y="280" width="10" height="80" as="geometry" />
        </mxCell>
        <mxCell id="souYRbx_8M2rUFFMSmSW-17" value="" style="rounded=0;whiteSpace=wrap;html=1;fillColor=#D4E1F5;movable=1;resizable=1;rotatable=1;deletable=1;editable=1;locked=0;connectable=1;" vertex="1" parent="1">
          <mxGeometry x="120" y="280" width="10" height="80" as="geometry" />
        </mxCell>
        <mxCell id="souYRbx_8M2rUFFMSmSW-18" value="" style="rounded=0;whiteSpace=wrap;html=1;fillColor=#D4E1F5;movable=1;resizable=1;rotatable=1;deletable=1;editable=1;locked=0;connectable=1;" vertex="1" parent="1">
          <mxGeometry x="130" y="280" width="10" height="80" as="geometry" />
        </mxCell>
        <mxCell id="souYRbx_8M2rUFFMSmSW-19" value="" style="rounded=0;whiteSpace=wrap;html=1;fillColor=#D4E1F5;movable=1;resizable=1;rotatable=1;deletable=1;editable=1;locked=0;connectable=1;" vertex="1" parent="1">
          <mxGeometry x="140" y="280" width="10" height="80" as="geometry" />
        </mxCell>
        <mxCell id="souYRbx_8M2rUFFMSmSW-20" value="" style="rounded=0;whiteSpace=wrap;html=1;fillColor=#D4E1F5;movable=1;resizable=1;rotatable=1;deletable=1;editable=1;locked=0;connectable=1;" vertex="1" parent="1">
          <mxGeometry x="150" y="280" width="10" height="80" as="geometry" />
        </mxCell>
        <mxCell id="souYRbx_8M2rUFFMSmSW-21" value="" style="rounded=0;whiteSpace=wrap;html=1;fillColor=#D4E1F5;movable=1;resizable=1;rotatable=1;deletable=1;editable=1;locked=0;connectable=1;" vertex="1" parent="1">
          <mxGeometry x="160" y="280" width="10" height="80" as="geometry" />
        </mxCell>
        <mxCell id="souYRbx_8M2rUFFMSmSW-22" value="" style="rounded=0;whiteSpace=wrap;html=1;fillColor=#D4E1F5;movable=1;resizable=1;rotatable=1;deletable=1;editable=1;locked=0;connectable=1;" vertex="1" parent="1">
          <mxGeometry x="170" y="280" width="10" height="80" as="geometry" />
        </mxCell>
        <mxCell id="souYRbx_8M2rUFFMSmSW-23" value="" style="rounded=0;whiteSpace=wrap;html=1;fillColor=#D4E1F5;movable=1;resizable=1;rotatable=1;deletable=1;editable=1;locked=0;connectable=1;" vertex="1" parent="1">
          <mxGeometry x="180" y="280" width="10" height="80" as="geometry" />
        </mxCell>
        <mxCell id="souYRbx_8M2rUFFMSmSW-24" value="" style="rounded=0;whiteSpace=wrap;html=1;fillColor=#D4E1F5;movable=1;resizable=1;rotatable=1;deletable=1;editable=1;locked=0;connectable=1;" vertex="1" parent="1">
          <mxGeometry x="190" y="280" width="10" height="80" as="geometry" />
        </mxCell>
        <mxCell id="souYRbx_8M2rUFFMSmSW-25" value="" style="rounded=0;whiteSpace=wrap;html=1;fillColor=#D4E1F5;movable=1;resizable=1;rotatable=1;deletable=1;editable=1;locked=0;connectable=1;" vertex="1" parent="1">
          <mxGeometry x="200" y="280" width="10" height="80" as="geometry" />
        </mxCell>
        <mxCell id="souYRbx_8M2rUFFMSmSW-26" value="" style="rounded=0;whiteSpace=wrap;html=1;fillColor=#D4E1F5;movable=1;resizable=1;rotatable=1;deletable=1;editable=1;locked=0;connectable=1;" vertex="1" parent="1">
          <mxGeometry x="210" y="280" width="10" height="80" as="geometry" />
        </mxCell>
        <mxCell id="souYRbx_8M2rUFFMSmSW-27" value="" style="rounded=0;whiteSpace=wrap;html=1;fillColor=#D4E1F5;movable=1;resizable=1;rotatable=1;deletable=1;editable=1;locked=0;connectable=1;" vertex="1" parent="1">
          <mxGeometry x="220" y="280" width="10" height="80" as="geometry" />
        </mxCell>
        <mxCell id="souYRbx_8M2rUFFMSmSW-28" value="" style="rounded=0;whiteSpace=wrap;html=1;fillColor=#D4E1F5;movable=1;resizable=1;rotatable=1;deletable=1;editable=1;locked=0;connectable=1;" vertex="1" parent="1">
          <mxGeometry x="230" y="280" width="10" height="80" as="geometry" />
        </mxCell>
        <mxCell id="souYRbx_8M2rUFFMSmSW-29" value="" style="rounded=0;whiteSpace=wrap;html=1;fillColor=#D4E1F5;movable=1;resizable=1;rotatable=1;deletable=1;editable=1;locked=0;connectable=1;" vertex="1" parent="1">
          <mxGeometry x="240" y="280" width="10" height="80" as="geometry" />
        </mxCell>
        <mxCell id="souYRbx_8M2rUFFMSmSW-30" value="" style="rounded=0;whiteSpace=wrap;html=1;fillColor=#D4E1F5;movable=1;resizable=1;rotatable=1;deletable=1;editable=1;locked=0;connectable=1;" vertex="1" parent="1">
          <mxGeometry x="250" y="280" width="10" height="80" as="geometry" />
        </mxCell>
        <mxCell id="souYRbx_8M2rUFFMSmSW-31" value="" style="rounded=0;whiteSpace=wrap;html=1;fillColor=#D4E1F5;movable=1;resizable=1;rotatable=1;deletable=1;editable=1;locked=0;connectable=1;" vertex="1" parent="1">
          <mxGeometry x="260" y="280" width="10" height="80" as="geometry" />
        </mxCell>
        <mxCell id="souYRbx_8M2rUFFMSmSW-32" value="" style="rounded=0;whiteSpace=wrap;html=1;fillColor=#D4E1F5;movable=1;resizable=1;rotatable=1;deletable=1;editable=1;locked=0;connectable=1;" vertex="1" parent="1">
          <mxGeometry x="270" y="280" width="10" height="80" as="geometry" />
        </mxCell>
        <mxCell id="souYRbx_8M2rUFFMSmSW-33" value="" style="rounded=0;whiteSpace=wrap;html=1;fillColor=#D4E1F5;movable=1;resizable=1;rotatable=1;deletable=1;editable=1;locked=0;connectable=1;" vertex="1" parent="1">
          <mxGeometry x="280" y="280" width="10" height="80" as="geometry" />
        </mxCell>
        <mxCell id="souYRbx_8M2rUFFMSmSW-34" value="" style="rounded=0;whiteSpace=wrap;html=1;fillColor=#D4E1F5;movable=1;resizable=1;rotatable=1;deletable=1;editable=1;locked=0;connectable=1;" vertex="1" parent="1">
          <mxGeometry x="290" y="280" width="10" height="80" as="geometry" />
        </mxCell>
        <mxCell id="souYRbx_8M2rUFFMSmSW-35" value="" style="rounded=0;whiteSpace=wrap;html=1;fillColor=#D4E1F5;movable=1;resizable=1;rotatable=1;deletable=1;editable=1;locked=0;connectable=1;" vertex="1" parent="1">
          <mxGeometry x="300" y="280" width="10" height="80" as="geometry" />
        </mxCell>
        <mxCell id="souYRbx_8M2rUFFMSmSW-36" value="" style="rounded=0;whiteSpace=wrap;html=1;fillColor=#D4E1F5;movable=1;resizable=1;rotatable=1;deletable=1;editable=1;locked=0;connectable=1;" vertex="1" parent="1">
          <mxGeometry x="310" y="280" width="10" height="80" as="geometry" />
        </mxCell>
        <mxCell id="souYRbx_8M2rUFFMSmSW-37" value="" style="rounded=0;whiteSpace=wrap;html=1;fillColor=#D4E1F5;movable=1;resizable=1;rotatable=1;deletable=1;editable=1;locked=0;connectable=1;" vertex="1" parent="1">
          <mxGeometry x="320" y="280" width="10" height="80" as="geometry" />
        </mxCell>
        <mxCell id="souYRbx_8M2rUFFMSmSW-38" value="" style="rounded=0;whiteSpace=wrap;html=1;fillColor=#D4E1F5;movable=1;resizable=1;rotatable=1;deletable=1;editable=1;locked=0;connectable=1;" vertex="1" parent="1">
          <mxGeometry x="330" y="280" width="10" height="80" as="geometry" />
        </mxCell>
        <mxCell id="souYRbx_8M2rUFFMSmSW-1" value="" style="rounded=0;whiteSpace=wrap;html=1;fillColor=#F8CECC;movable=1;resizable=1;rotatable=1;deletable=1;editable=1;locked=0;connectable=1;" vertex="1" parent="1">
          <mxGeometry x="40" y="300" width="60" height="40" as="geometry" />
        </mxCell>
        <mxCell id="souYRbx_8M2rUFFMSmSW-2" value="" style="rounded=0;whiteSpace=wrap;html=1;fillColor=#D5E8D4;movable=1;resizable=1;rotatable=1;deletable=1;editable=1;locked=0;connectable=1;" vertex="1" parent="1">
          <mxGeometry x="100" y="300" width="10" height="40" as="geometry" />
        </mxCell>
        <mxCell id="souYRbx_8M2rUFFMSmSW-39" value="" style="rounded=0;whiteSpace=wrap;html=1;fillColor=#D4E1F5;movable=1;resizable=1;rotatable=1;deletable=1;editable=1;locked=0;connectable=1;" vertex="1" parent="1">
          <mxGeometry x="40" y="370" width="290" height="80" as="geometry" />
        </mxCell>
        <mxCell id="souYRbx_8M2rUFFMSmSW-40" value="" style="rounded=0;whiteSpace=wrap;html=1;fillColor=#D4E1F5;movable=1;resizable=1;rotatable=1;deletable=1;editable=1;locked=0;connectable=1;" vertex="1" parent="1">
          <mxGeometry x="40" y="370" width="10" height="80" as="geometry" />
        </mxCell>
        <mxCell id="souYRbx_8M2rUFFMSmSW-41" value="" style="rounded=0;whiteSpace=wrap;html=1;fillColor=#D4E1F5;movable=1;resizable=1;rotatable=1;deletable=1;editable=1;locked=0;connectable=1;" vertex="1" parent="1">
          <mxGeometry x="50" y="370" width="10" height="80" as="geometry" />
        </mxCell>
        <mxCell id="souYRbx_8M2rUFFMSmSW-42" value="" style="rounded=0;whiteSpace=wrap;html=1;fillColor=#D4E1F5;movable=1;resizable=1;rotatable=1;deletable=1;editable=1;locked=0;connectable=1;" vertex="1" parent="1">
          <mxGeometry x="60" y="370" width="10" height="80" as="geometry" />
        </mxCell>
        <mxCell id="souYRbx_8M2rUFFMSmSW-43" value="" style="rounded=0;whiteSpace=wrap;html=1;fillColor=#D4E1F5;movable=1;resizable=1;rotatable=1;deletable=1;editable=1;locked=0;connectable=1;" vertex="1" parent="1">
          <mxGeometry x="70" y="370" width="10" height="80" as="geometry" />
        </mxCell>
        <mxCell id="souYRbx_8M2rUFFMSmSW-44" value="" style="rounded=0;whiteSpace=wrap;html=1;fillColor=#D4E1F5;movable=1;resizable=1;rotatable=1;deletable=1;editable=1;locked=0;connectable=1;" vertex="1" parent="1">
          <mxGeometry x="80" y="370" width="10" height="80" as="geometry" />
        </mxCell>
        <mxCell id="souYRbx_8M2rUFFMSmSW-45" value="" style="rounded=0;whiteSpace=wrap;html=1;fillColor=#D4E1F5;movable=1;resizable=1;rotatable=1;deletable=1;editable=1;locked=0;connectable=1;" vertex="1" parent="1">
          <mxGeometry x="90" y="370" width="10" height="80" as="geometry" />
        </mxCell>
        <mxCell id="souYRbx_8M2rUFFMSmSW-46" value="" style="rounded=0;whiteSpace=wrap;html=1;fillColor=#D4E1F5;movable=1;resizable=1;rotatable=1;deletable=1;editable=1;locked=0;connectable=1;" vertex="1" parent="1">
          <mxGeometry x="100" y="370" width="10" height="80" as="geometry" />
        </mxCell>
        <mxCell id="souYRbx_8M2rUFFMSmSW-47" value="" style="rounded=0;whiteSpace=wrap;html=1;fillColor=#D4E1F5;movable=1;resizable=1;rotatable=1;deletable=1;editable=1;locked=0;connectable=1;" vertex="1" parent="1">
          <mxGeometry x="110" y="370" width="10" height="80" as="geometry" />
        </mxCell>
        <mxCell id="souYRbx_8M2rUFFMSmSW-48" value="" style="rounded=0;whiteSpace=wrap;html=1;fillColor=#D4E1F5;movable=1;resizable=1;rotatable=1;deletable=1;editable=1;locked=0;connectable=1;" vertex="1" parent="1">
          <mxGeometry x="120" y="370" width="10" height="80" as="geometry" />
        </mxCell>
        <mxCell id="souYRbx_8M2rUFFMSmSW-49" value="" style="rounded=0;whiteSpace=wrap;html=1;fillColor=#D4E1F5;movable=1;resizable=1;rotatable=1;deletable=1;editable=1;locked=0;connectable=1;" vertex="1" parent="1">
          <mxGeometry x="130" y="370" width="10" height="80" as="geometry" />
        </mxCell>
        <mxCell id="souYRbx_8M2rUFFMSmSW-50" value="" style="rounded=0;whiteSpace=wrap;html=1;fillColor=#D4E1F5;movable=1;resizable=1;rotatable=1;deletable=1;editable=1;locked=0;connectable=1;" vertex="1" parent="1">
          <mxGeometry x="140" y="370" width="10" height="80" as="geometry" />
        </mxCell>
        <mxCell id="souYRbx_8M2rUFFMSmSW-51" value="" style="rounded=0;whiteSpace=wrap;html=1;fillColor=#D4E1F5;movable=1;resizable=1;rotatable=1;deletable=1;editable=1;locked=0;connectable=1;" vertex="1" parent="1">
          <mxGeometry x="150" y="370" width="10" height="80" as="geometry" />
        </mxCell>
        <mxCell id="souYRbx_8M2rUFFMSmSW-52" value="" style="rounded=0;whiteSpace=wrap;html=1;fillColor=#D4E1F5;movable=1;resizable=1;rotatable=1;deletable=1;editable=1;locked=0;connectable=1;" vertex="1" parent="1">
          <mxGeometry x="160" y="370" width="10" height="80" as="geometry" />
        </mxCell>
        <mxCell id="souYRbx_8M2rUFFMSmSW-53" value="" style="rounded=0;whiteSpace=wrap;html=1;fillColor=#D4E1F5;movable=1;resizable=1;rotatable=1;deletable=1;editable=1;locked=0;connectable=1;" vertex="1" parent="1">
          <mxGeometry x="170" y="370" width="10" height="80" as="geometry" />
        </mxCell>
        <mxCell id="souYRbx_8M2rUFFMSmSW-54" value="" style="rounded=0;whiteSpace=wrap;html=1;fillColor=#D4E1F5;movable=1;resizable=1;rotatable=1;deletable=1;editable=1;locked=0;connectable=1;" vertex="1" parent="1">
          <mxGeometry x="180" y="370" width="10" height="80" as="geometry" />
        </mxCell>
        <mxCell id="souYRbx_8M2rUFFMSmSW-55" value="" style="rounded=0;whiteSpace=wrap;html=1;fillColor=#D4E1F5;movable=1;resizable=1;rotatable=1;deletable=1;editable=1;locked=0;connectable=1;" vertex="1" parent="1">
          <mxGeometry x="190" y="370" width="10" height="80" as="geometry" />
        </mxCell>
        <mxCell id="souYRbx_8M2rUFFMSmSW-56" value="" style="rounded=0;whiteSpace=wrap;html=1;fillColor=#D4E1F5;movable=1;resizable=1;rotatable=1;deletable=1;editable=1;locked=0;connectable=1;" vertex="1" parent="1">
          <mxGeometry x="200" y="370" width="10" height="80" as="geometry" />
        </mxCell>
        <mxCell id="souYRbx_8M2rUFFMSmSW-57" value="" style="rounded=0;whiteSpace=wrap;html=1;fillColor=#D4E1F5;movable=1;resizable=1;rotatable=1;deletable=1;editable=1;locked=0;connectable=1;" vertex="1" parent="1">
          <mxGeometry x="210" y="370" width="10" height="80" as="geometry" />
        </mxCell>
        <mxCell id="souYRbx_8M2rUFFMSmSW-58" value="" style="rounded=0;whiteSpace=wrap;html=1;fillColor=#D4E1F5;movable=1;resizable=1;rotatable=1;deletable=1;editable=1;locked=0;connectable=1;" vertex="1" parent="1">
          <mxGeometry x="220" y="370" width="10" height="80" as="geometry" />
        </mxCell>
        <mxCell id="souYRbx_8M2rUFFMSmSW-59" value="" style="rounded=0;whiteSpace=wrap;html=1;fillColor=#D4E1F5;movable=1;resizable=1;rotatable=1;deletable=1;editable=1;locked=0;connectable=1;" vertex="1" parent="1">
          <mxGeometry x="230" y="370" width="10" height="80" as="geometry" />
        </mxCell>
        <mxCell id="souYRbx_8M2rUFFMSmSW-60" value="" style="rounded=0;whiteSpace=wrap;html=1;fillColor=#D4E1F5;movable=1;resizable=1;rotatable=1;deletable=1;editable=1;locked=0;connectable=1;" vertex="1" parent="1">
          <mxGeometry x="240" y="370" width="10" height="80" as="geometry" />
        </mxCell>
        <mxCell id="souYRbx_8M2rUFFMSmSW-61" value="" style="rounded=0;whiteSpace=wrap;html=1;fillColor=#D4E1F5;movable=1;resizable=1;rotatable=1;deletable=1;editable=1;locked=0;connectable=1;" vertex="1" parent="1">
          <mxGeometry x="250" y="370" width="10" height="80" as="geometry" />
        </mxCell>
        <mxCell id="souYRbx_8M2rUFFMSmSW-62" value="" style="rounded=0;whiteSpace=wrap;html=1;fillColor=#D4E1F5;movable=1;resizable=1;rotatable=1;deletable=1;editable=1;locked=0;connectable=1;" vertex="1" parent="1">
          <mxGeometry x="260" y="370" width="10" height="80" as="geometry" />
        </mxCell>
        <mxCell id="souYRbx_8M2rUFFMSmSW-63" value="" style="rounded=0;whiteSpace=wrap;html=1;fillColor=#D4E1F5;movable=1;resizable=1;rotatable=1;deletable=1;editable=1;locked=0;connectable=1;" vertex="1" parent="1">
          <mxGeometry x="270" y="370" width="10" height="80" as="geometry" />
        </mxCell>
        <mxCell id="souYRbx_8M2rUFFMSmSW-64" value="" style="rounded=0;whiteSpace=wrap;html=1;fillColor=#D4E1F5;movable=1;resizable=1;rotatable=1;deletable=1;editable=1;locked=0;connectable=1;" vertex="1" parent="1">
          <mxGeometry x="280" y="370" width="10" height="80" as="geometry" />
        </mxCell>
        <mxCell id="souYRbx_8M2rUFFMSmSW-65" value="" style="rounded=0;whiteSpace=wrap;html=1;fillColor=#D4E1F5;movable=1;resizable=1;rotatable=1;deletable=1;editable=1;locked=0;connectable=1;" vertex="1" parent="1">
          <mxGeometry x="290" y="370" width="10" height="80" as="geometry" />
        </mxCell>
        <mxCell id="souYRbx_8M2rUFFMSmSW-66" value="" style="rounded=0;whiteSpace=wrap;html=1;fillColor=#D4E1F5;movable=1;resizable=1;rotatable=1;deletable=1;editable=1;locked=0;connectable=1;" vertex="1" parent="1">
          <mxGeometry x="300" y="370" width="10" height="80" as="geometry" />
        </mxCell>
        <mxCell id="souYRbx_8M2rUFFMSmSW-67" value="" style="rounded=0;whiteSpace=wrap;html=1;fillColor=#D4E1F5;movable=1;resizable=1;rotatable=1;deletable=1;editable=1;locked=0;connectable=1;" vertex="1" parent="1">
          <mxGeometry x="310" y="370" width="10" height="80" as="geometry" />
        </mxCell>
        <mxCell id="souYRbx_8M2rUFFMSmSW-68" value="" style="rounded=0;whiteSpace=wrap;html=1;fillColor=#D4E1F5;movable=1;resizable=1;rotatable=1;deletable=1;editable=1;locked=0;connectable=1;" vertex="1" parent="1">
          <mxGeometry x="320" y="370" width="10" height="80" as="geometry" />
        </mxCell>
        <mxCell id="souYRbx_8M2rUFFMSmSW-69" value="" style="rounded=0;whiteSpace=wrap;html=1;fillColor=#D4E1F5;movable=1;resizable=1;rotatable=1;deletable=1;editable=1;locked=0;connectable=1;" vertex="1" parent="1">
          <mxGeometry x="330" y="370" width="10" height="80" as="geometry" />
        </mxCell>
        <mxCell id="souYRbx_8M2rUFFMSmSW-70" value="" style="rounded=0;whiteSpace=wrap;html=1;fillColor=#F8CECC;movable=1;resizable=1;rotatable=1;deletable=1;editable=1;locked=0;connectable=1;" vertex="1" parent="1">
          <mxGeometry x="50" y="390" width="60" height="40" as="geometry" />
        </mxCell>
        <mxCell id="souYRbx_8M2rUFFMSmSW-71" value="" style="rounded=0;whiteSpace=wrap;html=1;fillColor=#D5E8D4;movable=1;resizable=1;rotatable=1;deletable=1;editable=1;locked=0;connectable=1;" vertex="1" parent="1">
          <mxGeometry x="110" y="390" width="10" height="40" as="geometry" />
        </mxCell>
        <mxCell id="souYRbx_8M2rUFFMSmSW-79" value="" style="rounded=0;whiteSpace=wrap;html=1;fillColor=#D4E1F5;movable=1;resizable=1;rotatable=1;deletable=1;editable=1;locked=0;connectable=1;" vertex="1" parent="1">
          <mxGeometry x="40" y="460" width="290" height="80" as="geometry" />
        </mxCell>
        <mxCell id="souYRbx_8M2rUFFMSmSW-80" value="" style="rounded=0;whiteSpace=wrap;html=1;fillColor=#D4E1F5;movable=1;resizable=1;rotatable=1;deletable=1;editable=1;locked=0;connectable=1;" vertex="1" parent="1">
          <mxGeometry x="40" y="460" width="10" height="80" as="geometry" />
        </mxCell>
        <mxCell id="souYRbx_8M2rUFFMSmSW-81" value="" style="rounded=0;whiteSpace=wrap;html=1;fillColor=#D4E1F5;movable=1;resizable=1;rotatable=1;deletable=1;editable=1;locked=0;connectable=1;" vertex="1" parent="1">
          <mxGeometry x="50" y="460" width="10" height="80" as="geometry" />
        </mxCell>
        <mxCell id="souYRbx_8M2rUFFMSmSW-82" value="" style="rounded=0;whiteSpace=wrap;html=1;fillColor=#D4E1F5;movable=1;resizable=1;rotatable=1;deletable=1;editable=1;locked=0;connectable=1;" vertex="1" parent="1">
          <mxGeometry x="60" y="460" width="10" height="80" as="geometry" />
        </mxCell>
        <mxCell id="souYRbx_8M2rUFFMSmSW-83" value="" style="rounded=0;whiteSpace=wrap;html=1;fillColor=#D4E1F5;movable=1;resizable=1;rotatable=1;deletable=1;editable=1;locked=0;connectable=1;" vertex="1" parent="1">
          <mxGeometry x="70" y="460" width="10" height="80" as="geometry" />
        </mxCell>
        <mxCell id="souYRbx_8M2rUFFMSmSW-84" value="" style="rounded=0;whiteSpace=wrap;html=1;fillColor=#D4E1F5;movable=1;resizable=1;rotatable=1;deletable=1;editable=1;locked=0;connectable=1;" vertex="1" parent="1">
          <mxGeometry x="80" y="460" width="10" height="80" as="geometry" />
        </mxCell>
        <mxCell id="souYRbx_8M2rUFFMSmSW-85" value="" style="rounded=0;whiteSpace=wrap;html=1;fillColor=#D4E1F5;movable=1;resizable=1;rotatable=1;deletable=1;editable=1;locked=0;connectable=1;" vertex="1" parent="1">
          <mxGeometry x="90" y="460" width="10" height="80" as="geometry" />
        </mxCell>
        <mxCell id="souYRbx_8M2rUFFMSmSW-86" value="" style="rounded=0;whiteSpace=wrap;html=1;fillColor=#D4E1F5;movable=1;resizable=1;rotatable=1;deletable=1;editable=1;locked=0;connectable=1;" vertex="1" parent="1">
          <mxGeometry x="100" y="460" width="10" height="80" as="geometry" />
        </mxCell>
        <mxCell id="souYRbx_8M2rUFFMSmSW-87" value="" style="rounded=0;whiteSpace=wrap;html=1;fillColor=#D4E1F5;movable=1;resizable=1;rotatable=1;deletable=1;editable=1;locked=0;connectable=1;" vertex="1" parent="1">
          <mxGeometry x="110" y="460" width="10" height="80" as="geometry" />
        </mxCell>
        <mxCell id="souYRbx_8M2rUFFMSmSW-88" value="" style="rounded=0;whiteSpace=wrap;html=1;fillColor=#D4E1F5;movable=1;resizable=1;rotatable=1;deletable=1;editable=1;locked=0;connectable=1;" vertex="1" parent="1">
          <mxGeometry x="120" y="460" width="10" height="80" as="geometry" />
        </mxCell>
        <mxCell id="souYRbx_8M2rUFFMSmSW-89" value="" style="rounded=0;whiteSpace=wrap;html=1;fillColor=#D4E1F5;movable=1;resizable=1;rotatable=1;deletable=1;editable=1;locked=0;connectable=1;" vertex="1" parent="1">
          <mxGeometry x="130" y="460" width="10" height="80" as="geometry" />
        </mxCell>
        <mxCell id="souYRbx_8M2rUFFMSmSW-90" value="" style="rounded=0;whiteSpace=wrap;html=1;fillColor=#D4E1F5;movable=1;resizable=1;rotatable=1;deletable=1;editable=1;locked=0;connectable=1;" vertex="1" parent="1">
          <mxGeometry x="140" y="460" width="10" height="80" as="geometry" />
        </mxCell>
        <mxCell id="souYRbx_8M2rUFFMSmSW-91" value="" style="rounded=0;whiteSpace=wrap;html=1;fillColor=#D4E1F5;movable=1;resizable=1;rotatable=1;deletable=1;editable=1;locked=0;connectable=1;" vertex="1" parent="1">
          <mxGeometry x="150" y="460" width="10" height="80" as="geometry" />
        </mxCell>
        <mxCell id="souYRbx_8M2rUFFMSmSW-92" value="" style="rounded=0;whiteSpace=wrap;html=1;fillColor=#D4E1F5;movable=1;resizable=1;rotatable=1;deletable=1;editable=1;locked=0;connectable=1;" vertex="1" parent="1">
          <mxGeometry x="160" y="460" width="10" height="80" as="geometry" />
        </mxCell>
        <mxCell id="souYRbx_8M2rUFFMSmSW-93" value="" style="rounded=0;whiteSpace=wrap;html=1;fillColor=#D4E1F5;movable=1;resizable=1;rotatable=1;deletable=1;editable=1;locked=0;connectable=1;" vertex="1" parent="1">
          <mxGeometry x="170" y="460" width="10" height="80" as="geometry" />
        </mxCell>
        <mxCell id="souYRbx_8M2rUFFMSmSW-94" value="" style="rounded=0;whiteSpace=wrap;html=1;fillColor=#D4E1F5;movable=1;resizable=1;rotatable=1;deletable=1;editable=1;locked=0;connectable=1;" vertex="1" parent="1">
          <mxGeometry x="180" y="460" width="10" height="80" as="geometry" />
        </mxCell>
        <mxCell id="souYRbx_8M2rUFFMSmSW-95" value="" style="rounded=0;whiteSpace=wrap;html=1;fillColor=#D4E1F5;movable=1;resizable=1;rotatable=1;deletable=1;editable=1;locked=0;connectable=1;" vertex="1" parent="1">
          <mxGeometry x="190" y="460" width="10" height="80" as="geometry" />
        </mxCell>
        <mxCell id="souYRbx_8M2rUFFMSmSW-96" value="" style="rounded=0;whiteSpace=wrap;html=1;fillColor=#D4E1F5;movable=1;resizable=1;rotatable=1;deletable=1;editable=1;locked=0;connectable=1;" vertex="1" parent="1">
          <mxGeometry x="200" y="460" width="10" height="80" as="geometry" />
        </mxCell>
        <mxCell id="souYRbx_8M2rUFFMSmSW-97" value="" style="rounded=0;whiteSpace=wrap;html=1;fillColor=#D4E1F5;movable=1;resizable=1;rotatable=1;deletable=1;editable=1;locked=0;connectable=1;" vertex="1" parent="1">
          <mxGeometry x="210" y="460" width="10" height="80" as="geometry" />
        </mxCell>
        <mxCell id="souYRbx_8M2rUFFMSmSW-98" value="" style="rounded=0;whiteSpace=wrap;html=1;fillColor=#D4E1F5;movable=1;resizable=1;rotatable=1;deletable=1;editable=1;locked=0;connectable=1;" vertex="1" parent="1">
          <mxGeometry x="220" y="460" width="10" height="80" as="geometry" />
        </mxCell>
        <mxCell id="souYRbx_8M2rUFFMSmSW-99" value="" style="rounded=0;whiteSpace=wrap;html=1;fillColor=#D4E1F5;movable=1;resizable=1;rotatable=1;deletable=1;editable=1;locked=0;connectable=1;" vertex="1" parent="1">
          <mxGeometry x="230" y="460" width="10" height="80" as="geometry" />
        </mxCell>
        <mxCell id="souYRbx_8M2rUFFMSmSW-100" value="" style="rounded=0;whiteSpace=wrap;html=1;fillColor=#D4E1F5;movable=1;resizable=1;rotatable=1;deletable=1;editable=1;locked=0;connectable=1;" vertex="1" parent="1">
          <mxGeometry x="240" y="460" width="10" height="80" as="geometry" />
        </mxCell>
        <mxCell id="souYRbx_8M2rUFFMSmSW-101" value="" style="rounded=0;whiteSpace=wrap;html=1;fillColor=#D4E1F5;movable=1;resizable=1;rotatable=1;deletable=1;editable=1;locked=0;connectable=1;" vertex="1" parent="1">
          <mxGeometry x="250" y="460" width="10" height="80" as="geometry" />
        </mxCell>
        <mxCell id="souYRbx_8M2rUFFMSmSW-102" value="" style="rounded=0;whiteSpace=wrap;html=1;fillColor=#D4E1F5;movable=1;resizable=1;rotatable=1;deletable=1;editable=1;locked=0;connectable=1;" vertex="1" parent="1">
          <mxGeometry x="260" y="460" width="10" height="80" as="geometry" />
        </mxCell>
        <mxCell id="souYRbx_8M2rUFFMSmSW-103" value="" style="rounded=0;whiteSpace=wrap;html=1;fillColor=#D4E1F5;movable=1;resizable=1;rotatable=1;deletable=1;editable=1;locked=0;connectable=1;" vertex="1" parent="1">
          <mxGeometry x="270" y="460" width="10" height="80" as="geometry" />
        </mxCell>
        <mxCell id="souYRbx_8M2rUFFMSmSW-104" value="" style="rounded=0;whiteSpace=wrap;html=1;fillColor=#D4E1F5;movable=1;resizable=1;rotatable=1;deletable=1;editable=1;locked=0;connectable=1;" vertex="1" parent="1">
          <mxGeometry x="280" y="460" width="10" height="80" as="geometry" />
        </mxCell>
        <mxCell id="souYRbx_8M2rUFFMSmSW-105" value="" style="rounded=0;whiteSpace=wrap;html=1;fillColor=#D4E1F5;movable=1;resizable=1;rotatable=1;deletable=1;editable=1;locked=0;connectable=1;" vertex="1" parent="1">
          <mxGeometry x="290" y="460" width="10" height="80" as="geometry" />
        </mxCell>
        <mxCell id="souYRbx_8M2rUFFMSmSW-106" value="" style="rounded=0;whiteSpace=wrap;html=1;fillColor=#D4E1F5;movable=1;resizable=1;rotatable=1;deletable=1;editable=1;locked=0;connectable=1;" vertex="1" parent="1">
          <mxGeometry x="300" y="460" width="10" height="80" as="geometry" />
        </mxCell>
        <mxCell id="souYRbx_8M2rUFFMSmSW-107" value="" style="rounded=0;whiteSpace=wrap;html=1;fillColor=#D4E1F5;movable=1;resizable=1;rotatable=1;deletable=1;editable=1;locked=0;connectable=1;" vertex="1" parent="1">
          <mxGeometry x="310" y="460" width="10" height="80" as="geometry" />
        </mxCell>
        <mxCell id="souYRbx_8M2rUFFMSmSW-108" value="" style="rounded=0;whiteSpace=wrap;html=1;fillColor=#D4E1F5;movable=1;resizable=1;rotatable=1;deletable=1;editable=1;locked=0;connectable=1;" vertex="1" parent="1">
          <mxGeometry x="320" y="460" width="10" height="80" as="geometry" />
        </mxCell>
        <mxCell id="souYRbx_8M2rUFFMSmSW-109" value="" style="rounded=0;whiteSpace=wrap;html=1;fillColor=#D4E1F5;movable=1;resizable=1;rotatable=1;deletable=1;editable=1;locked=0;connectable=1;" vertex="1" parent="1">
          <mxGeometry x="330" y="460" width="10" height="80" as="geometry" />
        </mxCell>
        <mxCell id="souYRbx_8M2rUFFMSmSW-110" value="" style="rounded=0;whiteSpace=wrap;html=1;fillColor=#F8CECC;movable=1;resizable=1;rotatable=1;deletable=1;editable=1;locked=0;connectable=1;" vertex="1" parent="1">
          <mxGeometry x="60" y="480" width="60" height="40" as="geometry" />
        </mxCell>
        <mxCell id="souYRbx_8M2rUFFMSmSW-111" value="" style="rounded=0;whiteSpace=wrap;html=1;fillColor=#D5E8D4;movable=1;resizable=1;rotatable=1;deletable=1;editable=1;locked=0;connectable=1;" vertex="1" parent="1">
          <mxGeometry x="120" y="480" width="10" height="40" as="geometry" />
        </mxCell>
      </root>
    </mxGraphModel>
  </diagram>
</mxfile>
